<svg width="699" height="266" viewBox="0 0 699 266" fill="none" xmlns="http://www.w3.org/2000/svg">
<rect width="699" height="266" fill="white"/>
<path d="M32.4524 84.1708H45.9007C56.1214 84.1708 60.0214 80.5398 60.0214 73.4122C60.0214 66.2846 56.1214 62.519 45.9007 62.519H32.4524V84.1708ZM32.4524 102.461V128.954H9.7247V44.2293H46.9766C69.1663 44.2293 82.0767 54.5845 82.0767 73.2777C82.0767 92.1053 69.1663 102.461 46.9766 102.461H32.4524ZM171.596 86.5915C171.596 112.681 152.231 130.568 127.62 130.568C103.01 130.568 83.6442 112.681 83.6442 86.5915C83.6442 60.5018 103.01 42.6155 127.62 42.6155C152.231 42.6155 171.596 60.5018 171.596 86.5915ZM148.062 86.5915C148.062 72.2018 140.127 62.788 127.62 62.788C115.113 62.788 107.179 72.2018 107.179 86.5915C107.179 100.981 115.113 110.395 127.62 110.395C140.127 110.395 148.062 100.981 148.062 86.5915ZM254.887 128.954H231.755C230.007 126.668 228.931 121.423 228.259 112.681C227.586 102.998 223.417 100.847 215.752 100.847H200.555V128.954H178.097V44.2293H220.862C242.783 44.2293 253.676 54.5845 253.676 71.126C253.676 83.4984 246.011 91.5674 235.655 92.9122C244.397 94.6605 249.507 99.6364 250.449 109.454C251.659 122.095 252.062 125.861 254.887 128.954ZM200.555 83.2295H216.828C226.511 83.2295 231.352 80.8088 231.352 73.0087C231.352 66.1501 226.511 62.519 216.828 62.519H200.555V83.2295ZM308.405 128.954H285.677V63.057H256.629V44.2293H337.856V63.057H308.405V128.954ZM367.886 128.954H345.024V44.2293H409.038V63.057H367.886V79.3294H398.817V97.8881H367.886V128.954ZM496.914 86.5915C496.914 112.681 477.549 130.568 452.938 130.568C428.328 130.568 408.962 112.681 408.962 86.5915C408.962 60.5018 428.328 42.6155 452.938 42.6155C477.549 42.6155 496.914 60.5018 496.914 86.5915ZM473.38 86.5915C473.38 72.2018 465.445 62.788 452.938 62.788C440.431 62.788 432.497 72.2018 432.497 86.5915C432.497 100.981 440.431 110.395 452.938 110.395C465.445 110.395 473.38 100.981 473.38 86.5915ZM503.415 44.2293H526.277V110.126H568.236V128.954H503.415V44.2293ZM575.321 44.2293H598.183V128.954H575.321V44.2293ZM692.54 86.5915C692.54 112.681 673.175 130.568 648.564 130.568C623.954 130.568 604.588 112.681 604.588 86.5915C604.588 60.5018 623.954 42.6155 648.564 42.6155C673.175 42.6155 692.54 60.5018 692.54 86.5915ZM669.006 86.5915C669.006 72.2018 661.071 62.788 648.564 62.788C636.057 62.788 628.123 72.2018 628.123 86.5915C628.123 100.981 636.057 110.395 648.564 110.395C661.071 110.395 669.006 100.981 669.006 86.5915Z" fill="#222124"/>
<path d="M5.70253 188.984C5.70253 165.383 22.6121 149.203 44.996 149.203C68.4748 149.203 81.0049 164.167 82.4648 183.266L62.6355 183.996C61.419 175.48 56.7962 167.573 44.8744 167.573C33.5608 167.573 26.9916 175.967 26.9916 188.984C26.9916 202 33.5608 210.394 44.8744 210.394C56.7962 210.394 61.419 202.487 62.6355 193.971L82.4648 194.823C81.0049 213.922 68.4748 228.764 44.996 228.764C22.6121 228.764 5.70253 212.584 5.70253 188.984ZM109.067 150.663H132.18L162.715 227.304H140.696L134.978 212.462H105.052L99.3344 227.304H78.532L109.067 150.663ZM119.772 174.385L111.013 197.013H129.017L120.259 174.385H119.772ZM160.98 200.175L179.957 199.567C180.687 209.178 188.108 212.462 196.623 212.462C203.801 212.462 208.424 209.908 208.424 205.65C208.424 201.149 203.923 200.419 198.083 199.324L184.093 196.891C171.563 194.58 162.804 187.524 162.804 174.142C162.804 158.571 174.969 149.203 194.069 149.203C215.236 149.203 226.671 159.544 227.036 176.575L208.059 176.94C207.45 169.033 201.733 165.383 193.825 165.383C187.013 165.383 183.12 168.059 183.12 172.317C183.12 175.845 186.04 177.183 190.784 178.035L205.261 180.59C221.319 183.388 228.618 191.782 228.618 204.312C228.618 220.613 214.506 228.764 196.623 228.764C175.821 228.764 160.98 218.667 160.98 200.175ZM296.067 210.273V227.304H235.728V150.663H294.972V167.694H256.044V180.225H286.092V197.013H256.044V210.273H296.067ZM318.932 200.175L337.91 199.567C338.639 209.178 346.06 212.462 354.576 212.462C361.753 212.462 366.376 209.908 366.376 205.65C366.376 201.149 361.875 200.419 356.036 199.324L342.046 196.891C329.516 194.58 320.757 187.524 320.757 174.142C320.757 158.571 332.922 149.203 352.021 149.203C373.189 149.203 384.624 159.544 384.989 176.575L366.011 176.94C365.403 169.033 359.685 165.383 351.778 165.383C344.965 165.383 341.072 168.059 341.072 172.317C341.072 175.845 343.992 177.183 348.737 178.035L363.213 180.59C379.271 183.388 386.57 191.782 386.57 204.312C386.57 220.613 372.459 228.764 354.576 228.764C333.773 228.764 318.932 218.667 318.932 200.175ZM434.035 227.304H413.476V167.694H387.199V150.663H460.677V167.694H434.035V227.304ZM501.466 228.764C481.759 228.764 466.674 219.275 466.674 196.891V150.663H487.233V193.485C487.233 205.163 490.883 211.367 501.466 211.367C512.172 211.367 515.7 205.163 515.7 193.485V150.663H536.38V196.891C536.38 219.275 521.174 228.764 501.466 228.764ZM565.718 211.002H573.868C587.25 211.002 595.157 202.973 595.157 188.862C595.157 174.994 587.25 166.965 573.868 166.965H565.718V211.002ZM545.037 227.304V150.663H575.328C600.753 150.663 616.446 165.018 616.446 188.984C616.446 212.949 600.753 227.304 575.328 227.304H545.037ZM650.687 178.278L667.11 150.663H689.373L659.933 198.229V227.304H639.86V198.229L610.421 150.663H633.413L650.687 178.278Z" fill="#222124"/>
<path d="M152.237 94.2325L151.322 94.3534L151.837 95.1198C152.282 95.7832 152.728 96.4465 153.174 97.1097C160.373 107.817 167.577 118.533 173.161 130.06L173.164 130.065C173.917 131.581 174.613 133.287 174.886 134.932C175.158 136.575 174.998 138.089 174.129 139.301C172.648 141.331 169.598 141.808 167.154 140.94C164.715 140.074 162.663 138.032 160.836 135.888L160.836 135.887C152.694 126.354 146.713 115.217 140.752 104.117C140.602 103.839 140.453 103.56 140.303 103.282L139.472 101.736L139.231 103.474C138.782 106.707 138.364 109.966 137.945 113.239C136.508 124.46 135.051 135.842 132.224 146.865L132.222 146.872L132.22 146.879C131.769 148.848 131.175 150.777 130.152 152.545C129.14 154.141 127.452 155.513 125.565 155.649L125.552 155.65L125.539 155.652C124.411 155.785 123.248 155.421 122.203 154.726C121.159 154.032 120.27 153.029 119.703 151.96C118.546 149.778 118.242 147.127 118.09 144.366L118.089 144.357C117.024 129.199 117.937 114.035 118.853 98.8272L118.96 97.0522L117.837 98.431C116.231 100.403 114.631 102.397 113.027 104.397C105.618 113.634 98.1073 122.998 89.3615 130.919C88.0787 132.057 86.6415 133.164 85.1741 133.838C83.7092 134.512 82.2799 134.726 80.9537 134.192L80.9537 134.192L80.942 134.188C78.8116 133.384 77.6501 130.911 77.6501 128.428C77.6501 125.961 78.6602 123.613 79.7325 121.3C85.3659 109.368 92.5907 98.0113 99.7384 86.7761C99.9253 86.4823 100.112 86.1886 100.299 85.8949L100.713 85.244L99.9701 85.0358C87.9282 81.6616 76.3755 77.8358 65.5937 72.1825C64.1577 71.422 62.6885 70.5305 61.5453 69.4349C60.4091 68.3461 59.6273 67.0878 59.4885 65.5844C59.3604 63.1556 61.4052 60.738 63.9827 59.8735L63.9827 59.8736L63.9922 59.8702C66.4404 59.0008 69.2013 59.2824 72.1295 59.5925C82.3195 60.817 92.5115 62.9598 102.401 65.8684L103.507 66.1937L103.098 65.1157C98.6768 53.4571 94.566 41.3527 91.6745 29.1029L91.6746 29.1029L91.673 29.0964C91.2128 27.2444 90.7873 25.354 91.0729 23.4862C91.3621 21.5946 92.2115 19.9577 93.6648 19.1511C95.3898 18.3603 97.596 18.8723 99.3179 20.1717C101.026 21.4609 102.046 23.3398 102.957 25.3275L102.963 25.3398L102.969 25.3517C107.954 34.9962 111.756 45.0706 115.564 55.1593C116.288 57.079 117.013 58.9991 117.746 60.9169L118.854 60.7243C119.159 46.1237 119.62 31.3302 124.919 17.7733L124.921 17.7664L124.924 17.7594C126.132 14.4178 127.762 11.3216 130.525 9.27256C133.268 7.2389 137.226 7.01207 139.565 9.08199C141.649 11.0451 141.972 14.175 141.972 17.4112C141.972 28.6253 140.187 39.6527 138.39 50.754C137.785 54.4953 137.178 58.2449 136.637 62.0129L136.324 64.1922L137.66 62.4417C147.695 49.2839 159.861 37.655 173.395 28.1682L173.401 28.1642C175.549 26.6206 177.726 25.1773 180.154 24.8898C181.344 24.7489 182.645 24.9617 183.727 25.4886C184.807 26.0142 185.624 26.8276 185.947 27.8644C186.619 30.1702 185.284 32.5632 183.603 34.7169L183.597 34.7241L183.592 34.7316C174.295 47.4587 164.236 59.7281 153.259 72.0002L152.405 72.955H153.686C154.729 72.955 155.774 72.9542 156.818 72.9535C170.447 72.9434 184.136 72.9332 197.559 74.6388C197.561 74.6391 197.562 74.6393 197.564 74.6395L197.682 74.6565C199.801 74.9608 201.932 75.2669 203.773 76.2639C205.635 77.2729 207 78.9638 207.137 81.0188C207.27 83.1794 205.786 85.1455 203.788 86.1506L203.766 86.1619L203.744 86.1752C201.886 87.326 199.577 87.6259 197.107 87.9365L197.089 87.9387L197.072 87.942C186.307 89.973 175.3 91.3387 164.208 92.715C160.226 93.2091 156.234 93.7045 152.237 94.2325Z" fill="#5D36E7" stroke="#222124" stroke-width="1.14572"/>
<path d="M617.558 111.021L617.557 111.02C610.777 102.861 608.786 91.7489 610.557 81.0306C612.329 70.3115 617.854 60.063 626.001 53.6626C651.663 33.6799 692.591 53.3637 688.727 88.5264L688.727 88.5272C686.575 108.365 674.714 121.166 660.465 125.434C646.21 129.703 629.489 125.457 617.558 111.021ZM626.229 76.2085L626.221 76.2293L626.214 76.2508C622.88 86.3395 624.394 94.4366 628.567 100.214C632.728 105.972 639.478 109.35 646.488 110.13C653.499 110.909 660.835 109.099 666.178 104.395C671.538 99.6768 674.823 92.1088 673.827 81.5273L673.825 81.5033L673.821 81.4796C671.635 69.3217 661.982 62.6033 651.79 61.6226C641.607 60.6429 630.781 65.3809 626.229 76.2085Z" fill="#42DCBD" stroke="#222124" stroke-width="1.14572"/>
<g clip-path="url(#clip0_188_3)">
<path d="M527.365 203.824L527.366 203.825C530.999 205.958 534.885 208.039 539.076 208.709L539.08 208.709C545.268 209.604 551.582 207.143 556.555 203.367L556.557 203.366C561.47 199.563 565.377 194.68 569.116 189.809C573.83 192.447 577.931 194.884 582.155 197.863C577.184 204.847 571.79 211.586 565.123 216.809C558.394 222.083 550.23 225.881 541.718 226.319C532.56 226.757 523.529 223.18 515.852 218.049C508.222 212.949 501.16 207.196 492.534 199.636C496.42 195.926 500.377 192.422 504.471 188.988C505.436 189.634 506.39 190.274 507.335 190.907C514.295 195.571 520.746 199.895 527.365 203.824Z" fill="#EF5A31" stroke="#222124" stroke-width="0.485589"/>
</g>
<defs>
<clipPath id="clip0_188_3">
<rect width="90.3195" height="37.8759" fill="white" transform="translate(582.494 226.561) rotate(-180)"/>
</clipPath>
</defs>
</svg>
