<?xml version="1.0" encoding="UTF-8"?><svg id="Layer_1" xmlns="http://www.w3.org/2000/svg" viewBox="0 0 3720.24 3720.24"><defs><style>.cls-1{fill:none;stroke:#f2f2f2;stroke-miterlimit:10;}</style></defs><g><g><line class="cls-1" x1="2523.45" x2="2523.45" y2="2576.89"/><line class="cls-1" x1="2474.05" x2="2474.05" y2="2576.89"/><line class="cls-1" x1="2424.65" x2="2424.65" y2="2576.89"/><line class="cls-1" x1="2375.25" x2="2375.25" y2="2576.89"/><line class="cls-1" x1="2325.85" x2="2325.85" y2="2576.89"/><line class="cls-1" x1="2276.45" x2="2276.45" y2="2576.89"/><line class="cls-1" x1="2227.05" x2="2227.05" y2="2576.89"/><line class="cls-1" x1="2177.65" x2="2177.65" y2="2576.89"/><line class="cls-1" x1="2128.25" x2="2128.25" y2="2576.89"/><line class="cls-1" x1="2078.85" x2="2078.85" y2="2576.89"/><line class="cls-1" x1="2029.45" x2="2029.45" y2="2576.89"/><line class="cls-1" x1="1980.05" x2="1980.05" y2="2576.89"/><line class="cls-1" x1="1930.65" x2="1930.65" y2="2576.89"/><line class="cls-1" x1="1881.25" x2="1881.25" y2="2576.89"/><line class="cls-1" x1="1831.85" x2="1831.85" y2="2576.89"/><line class="cls-1" x1="1782.45" x2="1782.45" y2="2576.89"/><line class="cls-1" x1="1733.05" x2="1733.05" y2="2576.89"/><line class="cls-1" x1="1683.65" x2="1683.65" y2="2576.89"/><line class="cls-1" x1="1634.25" x2="1634.25" y2="2576.89"/><line class="cls-1" x1="1584.85" x2="1584.85" y2="2576.89"/><line class="cls-1" x1="1535.45" x2="1535.45" y2="2576.89"/><line class="cls-1" x1="1486.05" x2="1486.05" y2="2576.89"/><line class="cls-1" x1="1436.65" x2="1436.65" y2="2576.89"/><line class="cls-1" x1="1387.25" x2="1387.25" y2="2576.89"/><line class="cls-1" x1="1337.85" x2="1337.85" y2="2576.89"/><line class="cls-1" x1="1288.45" x2="1288.45" y2="2576.89"/><line class="cls-1" x1="1239.05" x2="1239.05" y2="2576.89"/><line class="cls-1" x1="1189.65" x2="1189.65" y2="2576.89"/><line class="cls-1" x1="1140.25" x2="1140.25" y2="2576.89"/><line class="cls-1" x1="1090.85" x2="1090.85" y2="2576.89"/><line class="cls-1" x1="1041.45" x2="1041.45" y2="2576.89"/><line class="cls-1" x1="992.05" x2="992.05" y2="2576.89"/><line class="cls-1" x1="942.65" x2="942.65" y2="2576.89"/><line class="cls-1" x1="893.25" x2="893.25" y2="2576.89"/><line class="cls-1" x1="843.85" x2="843.85" y2="2576.89"/><line class="cls-1" x1="794.45" x2="794.45" y2="2576.89"/><line class="cls-1" x1="745.05" x2="745.05" y2="2576.89"/><line class="cls-1" x1="695.65" x2="695.65" y2="2576.89"/><line class="cls-1" x1="646.25" x2="646.25" y2="2576.89"/><line class="cls-1" x1="596.85" x2="596.85" y2="2576.89"/><line class="cls-1" x1="547.45" x2="547.45" y2="2576.89"/><line class="cls-1" x1="498.05" x2="498.05" y2="2576.89"/><line class="cls-1" x1="448.65" x2="448.65" y2="2576.89"/><line class="cls-1" x1="399.25" x2="399.25" y2="2576.89"/><line class="cls-1" x1="349.85" x2="349.85" y2="2576.89"/><line class="cls-1" x1="300.45" x2="300.45" y2="2576.89"/><line class="cls-1" x1="251.05" x2="251.05" y2="2576.89"/><line class="cls-1" x1="201.65" x2="201.65" y2="2576.89"/><line class="cls-1" x1="152.25" x2="152.25" y2="2576.89"/><line class="cls-1" x1="102.85" x2="102.85" y2="2576.89"/><line class="cls-1" x1="53.45" x2="53.45" y2="2576.89"/></g><g><line class="cls-1" x1="2576.89" y1="2523.45" y2="2523.45"/><line class="cls-1" x1="2576.89" y1="2474.05" y2="2474.05"/><line class="cls-1" x1="2576.89" y1="2424.65" y2="2424.65"/><line class="cls-1" x1="2576.89" y1="2375.25" y2="2375.25"/><line class="cls-1" x1="2576.89" y1="2325.85" y2="2325.85"/><line class="cls-1" x1="2576.89" y1="2276.45" y2="2276.45"/><line class="cls-1" x1="2576.89" y1="2227.05" y2="2227.05"/><line class="cls-1" x1="2576.89" y1="2177.65" y2="2177.65"/><line class="cls-1" x1="2576.89" y1="2128.25" y2="2128.25"/><line class="cls-1" x1="2576.89" y1="2078.85" y2="2078.85"/><line class="cls-1" x1="2576.89" y1="2029.45" y2="2029.45"/><line class="cls-1" x1="2576.89" y1="1980.05" y2="1980.05"/><line class="cls-1" x1="2576.89" y1="1930.65" y2="1930.65"/><line class="cls-1" x1="2576.89" y1="1881.25" y2="1881.25"/><line class="cls-1" x1="2576.89" y1="1831.85" y2="1831.85"/><line class="cls-1" x1="2576.89" y1="1782.45" y2="1782.45"/><line class="cls-1" x1="2576.89" y1="1733.05" y2="1733.05"/><line class="cls-1" x1="2576.89" y1="1683.65" y2="1683.65"/><line class="cls-1" x1="2576.89" y1="1634.25" y2="1634.25"/><line class="cls-1" x1="2576.89" y1="1584.85" y2="1584.85"/><line class="cls-1" x1="2576.89" y1="1535.45" y2="1535.45"/><line class="cls-1" x1="2576.89" y1="1486.05" y2="1486.05"/><line class="cls-1" x1="2576.89" y1="1436.65" y2="1436.65"/><line class="cls-1" x1="2576.89" y1="1387.25" y2="1387.25"/><line class="cls-1" x1="2576.89" y1="1337.85" y2="1337.85"/><line class="cls-1" x1="2576.89" y1="1288.45" y2="1288.45"/><line class="cls-1" x1="2576.89" y1="1239.05" y2="1239.05"/><line class="cls-1" x1="2576.89" y1="1189.65" y2="1189.65"/><line class="cls-1" x1="2576.89" y1="1140.25" y2="1140.25"/><line class="cls-1" x1="2576.89" y1="1090.85" y2="1090.85"/><line class="cls-1" x1="2576.89" y1="1041.45" y2="1041.45"/><line class="cls-1" x1="2576.89" y1="992.05" y2="992.05"/><line class="cls-1" x1="2576.89" y1="942.65" y2="942.65"/><line class="cls-1" x1="2576.89" y1="893.25" y2="893.25"/><line class="cls-1" x1="2576.89" y1="843.85" y2="843.85"/><line class="cls-1" x1="2576.89" y1="794.45" y2="794.45"/><line class="cls-1" x1="2576.89" y1="745.05" y2="745.05"/><line class="cls-1" x1="2576.89" y1="695.65" y2="695.65"/><line class="cls-1" x1="2576.89" y1="646.25" y2="646.25"/><line class="cls-1" x1="2576.89" y1="596.85" y2="596.85"/><line class="cls-1" x1="2576.89" y1="547.45" y2="547.45"/><line class="cls-1" x1="2576.89" y1="498.05" y2="498.05"/><line class="cls-1" x1="2576.89" y1="448.65" y2="448.65"/><line class="cls-1" x1="2576.89" y1="399.25" y2="399.25"/><line class="cls-1" x1="2576.89" y1="349.85" y2="349.85"/><line class="cls-1" x1="2576.89" y1="300.45" y2="300.45"/><line class="cls-1" x1="2576.89" y1="251.05" y2="251.05"/><line class="cls-1" x1="2576.89" y1="201.65" y2="201.65"/><line class="cls-1" x1="2576.89" y1="152.25" y2="152.25"/><line class="cls-1" x1="2576.89" y1="102.85" y2="102.85"/><line class="cls-1" x1="2576.89" y1="53.45" y2="53.45"/></g></g><g><g><line class="cls-1" x1="3713.11" x2="3713.11" y2="2576.89"/><line class="cls-1" x1="3663.71" x2="3663.71" y2="2576.89"/><line class="cls-1" x1="3614.31" x2="3614.31" y2="2576.89"/><line class="cls-1" x1="3564.91" x2="3564.91" y2="2576.89"/><line class="cls-1" x1="3515.51" x2="3515.51" y2="2576.89"/><line class="cls-1" x1="3466.11" x2="3466.11" y2="2576.89"/><line class="cls-1" x1="3416.71" x2="3416.71" y2="2576.89"/><line class="cls-1" x1="3367.31" x2="3367.31" y2="2576.89"/><line class="cls-1" x1="3317.91" x2="3317.91" y2="2576.89"/><line class="cls-1" x1="3268.51" x2="3268.51" y2="2576.89"/><line class="cls-1" x1="3219.11" x2="3219.11" y2="2576.89"/><line class="cls-1" x1="3169.71" x2="3169.71" y2="2576.89"/><line class="cls-1" x1="3120.31" x2="3120.31" y2="2576.89"/><line class="cls-1" x1="3070.91" x2="3070.91" y2="2576.89"/><line class="cls-1" x1="3021.51" x2="3021.51" y2="2576.89"/><line class="cls-1" x1="2972.11" x2="2972.11" y2="2576.89"/><line class="cls-1" x1="2922.71" x2="2922.71" y2="2576.89"/><line class="cls-1" x1="2873.31" x2="2873.31" y2="2576.89"/><line class="cls-1" x1="2823.91" x2="2823.91" y2="2576.89"/><line class="cls-1" x1="2774.51" x2="2774.51" y2="2576.89"/><line class="cls-1" x1="2725.11" x2="2725.11" y2="2576.89"/><line class="cls-1" x1="2675.71" x2="2675.71" y2="2576.89"/><line class="cls-1" x1="2626.31" x2="2626.31" y2="2576.89"/><line class="cls-1" x1="2576.91" x2="2576.91" y2="2576.89"/></g><g><line class="cls-1" x1="5100.35" y1="2523.45" x2="2523.46" y2="2523.45"/><line class="cls-1" x1="5100.35" y1="2474.05" x2="2523.46" y2="2474.05"/><line class="cls-1" x1="5100.35" y1="2424.65" x2="2523.46" y2="2424.65"/><line class="cls-1" x1="5100.35" y1="2375.25" x2="2523.46" y2="2375.25"/><line class="cls-1" x1="5100.35" y1="2325.85" x2="2523.46" y2="2325.85"/><line class="cls-1" x1="5100.35" y1="2276.45" x2="2523.46" y2="2276.45"/><line class="cls-1" x1="5100.35" y1="2227.05" x2="2523.46" y2="2227.05"/><line class="cls-1" x1="5100.35" y1="2177.65" x2="2523.46" y2="2177.65"/><line class="cls-1" x1="5100.35" y1="2128.25" x2="2523.46" y2="2128.25"/><line class="cls-1" x1="5100.35" y1="2078.85" x2="2523.46" y2="2078.85"/><line class="cls-1" x1="5100.35" y1="2029.45" x2="2523.46" y2="2029.45"/><line class="cls-1" x1="5100.35" y1="1980.05" x2="2523.46" y2="1980.05"/><line class="cls-1" x1="5100.35" y1="1930.65" x2="2523.46" y2="1930.65"/><line class="cls-1" x1="5100.35" y1="1881.25" x2="2523.46" y2="1881.25"/><line class="cls-1" x1="5100.35" y1="1831.85" x2="2523.46" y2="1831.85"/><line class="cls-1" x1="5100.35" y1="1782.45" x2="2523.46" y2="1782.45"/><line class="cls-1" x1="5100.35" y1="1733.05" x2="2523.46" y2="1733.05"/><line class="cls-1" x1="5100.35" y1="1683.65" x2="2523.46" y2="1683.65"/><line class="cls-1" x1="5100.35" y1="1634.25" x2="2523.46" y2="1634.25"/><line class="cls-1" x1="5100.35" y1="1584.85" x2="2523.46" y2="1584.85"/><line class="cls-1" x1="5100.35" y1="1535.45" x2="2523.46" y2="1535.45"/><line class="cls-1" x1="5100.35" y1="1486.05" x2="2523.46" y2="1486.05"/><line class="cls-1" x1="5100.35" y1="1436.65" x2="2523.46" y2="1436.65"/><line class="cls-1" x1="5100.35" y1="1387.25" x2="2523.46" y2="1387.25"/><line class="cls-1" x1="5100.35" y1="1337.85" x2="2523.46" y2="1337.85"/><line class="cls-1" x1="5100.35" y1="1288.45" x2="2523.46" y2="1288.45"/><line class="cls-1" x1="5100.35" y1="1239.05" x2="2523.46" y2="1239.05"/><line class="cls-1" x1="5100.35" y1="1189.65" x2="2523.46" y2="1189.65"/><line class="cls-1" x1="5100.35" y1="1140.25" x2="2523.46" y2="1140.25"/><line class="cls-1" x1="5100.35" y1="1090.85" x2="2523.46" y2="1090.85"/><line class="cls-1" x1="5100.35" y1="1041.45" x2="2523.46" y2="1041.45"/><line class="cls-1" x1="5100.35" y1="992.05" x2="2523.46" y2="992.05"/><line class="cls-1" x1="5100.35" y1="942.65" x2="2523.46" y2="942.65"/><line class="cls-1" x1="5100.35" y1="893.25" x2="2523.46" y2="893.25"/><line class="cls-1" x1="5100.35" y1="843.85" x2="2523.46" y2="843.85"/><line class="cls-1" x1="5100.35" y1="794.45" x2="2523.46" y2="794.45"/><line class="cls-1" x1="5100.35" y1="745.05" x2="2523.46" y2="745.05"/><line class="cls-1" x1="5100.35" y1="695.65" x2="2523.46" y2="695.65"/><line class="cls-1" x1="5100.35" y1="646.25" x2="2523.46" y2="646.25"/><line class="cls-1" x1="5100.35" y1="596.85" x2="2523.46" y2="596.85"/><line class="cls-1" x1="5100.35" y1="547.45" x2="2523.46" y2="547.45"/><line class="cls-1" x1="5100.35" y1="498.05" x2="2523.46" y2="498.05"/><line class="cls-1" x1="5100.35" y1="448.65" x2="2523.46" y2="448.65"/><line class="cls-1" x1="5100.35" y1="399.25" x2="2523.46" y2="399.25"/><line class="cls-1" x1="5100.35" y1="349.85" x2="2523.46" y2="349.85"/><line class="cls-1" x1="5100.35" y1="300.45" x2="2523.46" y2="300.45"/><line class="cls-1" x1="5100.35" y1="251.05" x2="2523.46" y2="251.05"/><line class="cls-1" x1="5100.35" y1="201.65" x2="2523.46" y2="201.65"/><line class="cls-1" x1="5100.35" y1="152.25" x2="2523.46" y2="152.25"/><line class="cls-1" x1="5100.35" y1="102.85" x2="2523.46" y2="102.85"/><line class="cls-1" x1="5100.35" y1="53.45" x2="2523.46" y2="53.45"/></g></g><g><g><line class="cls-1" x1="2523.45" y1="2523.91" x2="2523.45" y2="5100.8"/><line class="cls-1" x1="2474.05" y1="2523.91" x2="2474.05" y2="5100.8"/><line class="cls-1" x1="2424.65" y1="2523.91" x2="2424.65" y2="5100.8"/><line class="cls-1" x1="2375.25" y1="2523.91" x2="2375.25" y2="5100.8"/><line class="cls-1" x1="2325.85" y1="2523.91" x2="2325.85" y2="5100.8"/><line class="cls-1" x1="2276.45" y1="2523.91" x2="2276.45" y2="5100.8"/><line class="cls-1" x1="2227.05" y1="2523.91" x2="2227.05" y2="5100.8"/><line class="cls-1" x1="2177.65" y1="2523.91" x2="2177.65" y2="5100.8"/><line class="cls-1" x1="2128.25" y1="2523.91" x2="2128.25" y2="5100.8"/><line class="cls-1" x1="2078.85" y1="2523.91" x2="2078.85" y2="5100.8"/><line class="cls-1" x1="2029.45" y1="2523.91" x2="2029.45" y2="5100.8"/><line class="cls-1" x1="1980.05" y1="2523.91" x2="1980.05" y2="5100.8"/><line class="cls-1" x1="1930.65" y1="2523.91" x2="1930.65" y2="5100.8"/><line class="cls-1" x1="1881.25" y1="2523.91" x2="1881.25" y2="5100.8"/><line class="cls-1" x1="1831.85" y1="2523.91" x2="1831.85" y2="5100.8"/><line class="cls-1" x1="1782.45" y1="2523.91" x2="1782.45" y2="5100.8"/><line class="cls-1" x1="1733.05" y1="2523.91" x2="1733.05" y2="5100.8"/><line class="cls-1" x1="1683.65" y1="2523.91" x2="1683.65" y2="5100.8"/><line class="cls-1" x1="1634.25" y1="2523.91" x2="1634.25" y2="5100.8"/><line class="cls-1" x1="1584.85" y1="2523.91" x2="1584.85" y2="5100.8"/><line class="cls-1" x1="1535.45" y1="2523.91" x2="1535.45" y2="5100.8"/><line class="cls-1" x1="1486.05" y1="2523.91" x2="1486.05" y2="5100.8"/><line class="cls-1" x1="1436.65" y1="2523.91" x2="1436.65" y2="5100.8"/><line class="cls-1" x1="1387.25" y1="2523.91" x2="1387.25" y2="5100.8"/><line class="cls-1" x1="1337.85" y1="2523.91" x2="1337.85" y2="5100.8"/><line class="cls-1" x1="1288.45" y1="2523.91" x2="1288.45" y2="5100.8"/><line class="cls-1" x1="1239.05" y1="2523.91" x2="1239.05" y2="5100.8"/><line class="cls-1" x1="1189.65" y1="2523.91" x2="1189.65" y2="5100.8"/><line class="cls-1" x1="1140.25" y1="2523.91" x2="1140.25" y2="5100.8"/><line class="cls-1" x1="1090.85" y1="2523.91" x2="1090.85" y2="5100.8"/><line class="cls-1" x1="1041.45" y1="2523.91" x2="1041.45" y2="5100.8"/><line class="cls-1" x1="992.05" y1="2523.91" x2="992.05" y2="5100.8"/><line class="cls-1" x1="942.65" y1="2523.91" x2="942.65" y2="5100.8"/><line class="cls-1" x1="893.25" y1="2523.91" x2="893.25" y2="5100.8"/><line class="cls-1" x1="843.85" y1="2523.91" x2="843.85" y2="5100.8"/><line class="cls-1" x1="794.45" y1="2523.91" x2="794.45" y2="5100.8"/><line class="cls-1" x1="745.05" y1="2523.91" x2="745.05" y2="5100.8"/><line class="cls-1" x1="695.65" y1="2523.91" x2="695.65" y2="5100.8"/><line class="cls-1" x1="646.25" y1="2523.91" x2="646.25" y2="5100.8"/><line class="cls-1" x1="596.85" y1="2523.91" x2="596.85" y2="5100.8"/><line class="cls-1" x1="547.45" y1="2523.91" x2="547.45" y2="5100.8"/><line class="cls-1" x1="498.05" y1="2523.91" x2="498.05" y2="5100.8"/><line class="cls-1" x1="448.65" y1="2523.91" x2="448.65" y2="5100.8"/><line class="cls-1" x1="399.25" y1="2523.91" x2="399.25" y2="5100.8"/><line class="cls-1" x1="349.85" y1="2523.91" x2="349.85" y2="5100.8"/><line class="cls-1" x1="300.45" y1="2523.91" x2="300.45" y2="5100.8"/><line class="cls-1" x1="251.05" y1="2523.91" x2="251.05" y2="5100.8"/><line class="cls-1" x1="201.65" y1="2523.91" x2="201.65" y2="5100.8"/><line class="cls-1" x1="152.25" y1="2523.91" x2="152.25" y2="5100.8"/><line class="cls-1" x1="102.85" y1="2523.91" x2="102.85" y2="5100.8"/><line class="cls-1" x1="53.45" y1="2523.91" x2="53.45" y2="5100.8"/></g><g><line class="cls-1" x1="2576.89" y1="3713.56" y2="3713.56"/><line class="cls-1" x1="2576.89" y1="3664.16" y2="3664.16"/><line class="cls-1" x1="2576.89" y1="3614.76" y2="3614.76"/><line class="cls-1" x1="2576.89" y1="3565.36" y2="3565.36"/><line class="cls-1" x1="2576.89" y1="3515.96" y2="3515.96"/><line class="cls-1" x1="2576.89" y1="3466.56" y2="3466.56"/><line class="cls-1" x1="2576.89" y1="3417.16" y2="3417.16"/><line class="cls-1" x1="2576.89" y1="3367.76" y2="3367.76"/><line class="cls-1" x1="2576.89" y1="3318.36" y2="3318.36"/><line class="cls-1" x1="2576.89" y1="3268.96" y2="3268.96"/><line class="cls-1" x1="2576.89" y1="3219.56" y2="3219.56"/><line class="cls-1" x1="2576.89" y1="3170.16" y2="3170.16"/><line class="cls-1" x1="2576.89" y1="3120.76" y2="3120.76"/><line class="cls-1" x1="2576.89" y1="3071.36" y2="3071.36"/><line class="cls-1" x1="2576.89" y1="3021.96" y2="3021.96"/><line class="cls-1" x1="2576.89" y1="2972.56" y2="2972.56"/><line class="cls-1" x1="2576.89" y1="2923.16" y2="2923.16"/><line class="cls-1" x1="2576.89" y1="2873.76" y2="2873.76"/><line class="cls-1" x1="2576.89" y1="2824.36" y2="2824.36"/><line class="cls-1" x1="2576.89" y1="2774.96" y2="2774.96"/><line class="cls-1" x1="2576.89" y1="2725.56" y2="2725.56"/><line class="cls-1" x1="2576.89" y1="2676.16" y2="2676.16"/><line class="cls-1" x1="2576.89" y1="2626.76" y2="2626.76"/><line class="cls-1" x1="2576.89" y1="2577.36" y2="2577.36"/></g></g><g><g><line class="cls-1" x1="3713.11" y1="2523.91" x2="3713.11" y2="5100.8"/><line class="cls-1" x1="3663.71" y1="2523.91" x2="3663.71" y2="5100.8"/><line class="cls-1" x1="3614.31" y1="2523.91" x2="3614.31" y2="5100.8"/><line class="cls-1" x1="3564.91" y1="2523.91" x2="3564.91" y2="5100.8"/><line class="cls-1" x1="3515.51" y1="2523.91" x2="3515.51" y2="5100.8"/><line class="cls-1" x1="3466.11" y1="2523.91" x2="3466.11" y2="5100.8"/><line class="cls-1" x1="3416.71" y1="2523.91" x2="3416.71" y2="5100.8"/><line class="cls-1" x1="3367.31" y1="2523.91" x2="3367.31" y2="5100.8"/><line class="cls-1" x1="3317.91" y1="2523.91" x2="3317.91" y2="5100.8"/><line class="cls-1" x1="3268.51" y1="2523.91" x2="3268.51" y2="5100.8"/><line class="cls-1" x1="3219.11" y1="2523.91" x2="3219.11" y2="5100.8"/><line class="cls-1" x1="3169.71" y1="2523.91" x2="3169.71" y2="5100.8"/><line class="cls-1" x1="3120.31" y1="2523.91" x2="3120.31" y2="5100.8"/><line class="cls-1" x1="3070.91" y1="2523.91" x2="3070.91" y2="5100.8"/><line class="cls-1" x1="3021.51" y1="2523.91" x2="3021.51" y2="5100.8"/><line class="cls-1" x1="2972.11" y1="2523.91" x2="2972.11" y2="5100.8"/><line class="cls-1" x1="2922.71" y1="2523.91" x2="2922.71" y2="5100.8"/><line class="cls-1" x1="2873.31" y1="2523.91" x2="2873.31" y2="5100.8"/><line class="cls-1" x1="2823.91" y1="2523.91" x2="2823.91" y2="5100.8"/><line class="cls-1" x1="2774.51" y1="2523.91" x2="2774.51" y2="5100.8"/><line class="cls-1" x1="2725.11" y1="2523.91" x2="2725.11" y2="5100.8"/><line class="cls-1" x1="2675.71" y1="2523.91" x2="2675.71" y2="5100.8"/><line class="cls-1" x1="2626.31" y1="2523.91" x2="2626.31" y2="5100.8"/><line class="cls-1" x1="2576.91" y1="2523.91" x2="2576.91" y2="5100.8"/></g><g><line class="cls-1" x1="5100.35" y1="3713.56" x2="2523.46" y2="3713.56"/><line class="cls-1" x1="5100.35" y1="3664.16" x2="2523.46" y2="3664.16"/><line class="cls-1" x1="5100.35" y1="3614.76" x2="2523.46" y2="3614.76"/><line class="cls-1" x1="5100.35" y1="3565.36" x2="2523.46" y2="3565.36"/><line class="cls-1" x1="5100.35" y1="3515.96" x2="2523.46" y2="3515.96"/><line class="cls-1" x1="5100.35" y1="3466.56" x2="2523.46" y2="3466.56"/><line class="cls-1" x1="5100.35" y1="3417.16" x2="2523.46" y2="3417.16"/><line class="cls-1" x1="5100.35" y1="3367.76" x2="2523.46" y2="3367.76"/><line class="cls-1" x1="5100.35" y1="3318.36" x2="2523.46" y2="3318.36"/><line class="cls-1" x1="5100.35" y1="3268.96" x2="2523.46" y2="3268.96"/><line class="cls-1" x1="5100.35" y1="3219.56" x2="2523.46" y2="3219.56"/><line class="cls-1" x1="5100.35" y1="3170.16" x2="2523.46" y2="3170.16"/><line class="cls-1" x1="5100.35" y1="3120.76" x2="2523.46" y2="3120.76"/><line class="cls-1" x1="5100.35" y1="3071.36" x2="2523.46" y2="3071.36"/><line class="cls-1" x1="5100.35" y1="3021.96" x2="2523.46" y2="3021.96"/><line class="cls-1" x1="5100.35" y1="2972.56" x2="2523.46" y2="2972.56"/><line class="cls-1" x1="5100.35" y1="2923.16" x2="2523.46" y2="2923.16"/><line class="cls-1" x1="5100.35" y1="2873.76" x2="2523.46" y2="2873.76"/><line class="cls-1" x1="5100.35" y1="2824.36" x2="2523.46" y2="2824.36"/><line class="cls-1" x1="5100.35" y1="2774.96" x2="2523.46" y2="2774.96"/><line class="cls-1" x1="5100.35" y1="2725.56" x2="2523.46" y2="2725.56"/><line class="cls-1" x1="5100.35" y1="2676.16" x2="2523.46" y2="2676.16"/><line class="cls-1" x1="5100.35" y1="2626.76" x2="2523.46" y2="2626.76"/><line class="cls-1" x1="5100.35" y1="2577.36" x2="2523.46" y2="2577.36"/></g></g></svg>