<?xml version="1.0" encoding="UTF-8"?><svg id="Layer_1" xmlns="http://www.w3.org/2000/svg" xmlns:xlink="http://www.w3.org/1999/xlink" viewBox="0 0 3720.24 3720.24"><defs><style>.cls-1{fill:url(#linear-gradient);}</style><linearGradient id="linear-gradient" x1="3030.3" y1="6061.13" x2="3030.3" y2="0" gradientUnits="userSpaceOnUse"><stop offset="0" stop-color="#fff" stop-opacity="0"/><stop offset=".2" stop-color="#fafafa" stop-opacity=".18"/><stop offset=".65" stop-color="#efefef" stop-opacity=".63"/><stop offset="1" stop-color="#e6e6e6"/></linearGradient></defs><path class="cls-1" d="M2999.13,3062.04h-1.19V0h1.19V3062.04ZM2940.43,0h-1.19V3062.04h1.19V0ZM2881.73,0h-1.19V3062.04h1.19V0ZM2823.03,0h-1.19V3062.04h1.19V0ZM2764.33,0h-1.19V3062.04h1.19V0ZM2705.63,0h-1.19V3062.04h1.19V0ZM2646.93,0h-1.19V3062.04h1.19V0ZM2588.22,0h-1.19V3062.04h1.19V0ZM2529.52,0h-1.19V3062.04h1.19V0ZM2470.82,0h-1.19V3062.04h1.19V0ZM2412.12,0h-1.19V3062.04h1.19V0ZM2353.42,0h-1.19V3062.04h1.19V0ZM2294.72,0h-1.19V3062.04h1.19V0ZM2236.02,0h-1.19V3062.04h1.19V0ZM2177.32,0h-1.19V3062.04h1.19V0ZM2118.62,0h-1.19V3062.04h1.19V0ZM2059.92,0h-1.19V3062.04h1.19V0ZM2001.22,0h-1.19V3062.04h1.19V0ZM1942.52,0h-1.19V3062.04h1.19V0ZM1883.82,0h-1.19V3062.04h1.19V0ZM1825.12,0h-1.19V3062.04h1.19V0ZM1766.42,0h-1.19V3062.04h1.19V0ZM1707.72,0h-1.19V3062.04h1.19V0ZM1649.02,0h-1.19V3062.04h1.19V0ZM1590.32,0h-1.19V3062.04h1.19V0ZM1531.62,0h-1.19V3062.04h1.19V0ZM1472.91,0h-1.19V3062.04h1.19V0ZM1414.21,0h-1.19V3062.04h1.19V0ZM1355.51,0h-1.19V3062.04h1.19V0ZM1296.81,0h-1.19V3062.04h1.19V0ZM1238.11,0h-1.19V3062.04h1.19V0ZM1179.41,0h-1.19V3062.04h1.19V0ZM1120.71,0h-1.19V3062.04h1.19V0ZM1062.01,0h-1.19V3062.04h1.19V0ZM1003.31,0h-1.19V3062.04h1.19V0ZM944.61,0h-1.19V3062.04h1.19V0ZM885.91,0h-1.19V3062.04h1.19V0ZM827.21,0h-1.19V3062.04h1.19V0ZM768.51,0h-1.19V3062.04h1.19V0ZM709.81,0h-1.19V3062.04h1.19V0ZM651.11,0h-1.19V3062.04h1.19V0ZM592.41,0h-1.19V3062.04h1.19V0ZM533.71,0h-1.19V3062.04h1.19V0ZM475.01,0h-1.19V3062.04h1.19V0ZM416.31,0h-1.19V3062.04h1.19V0ZM357.61,0h-1.19V3062.04h1.19V0ZM298.9,0h-1.19V3062.04h1.19V0ZM240.2,0h-1.19V3062.04h1.19V0ZM181.5,0h-1.19V3062.04h1.19V0ZM122.8,0h-1.19V3062.04h1.19V0ZM64.1,0h-1.19V3062.04h1.19V0ZM3062.04,2997.94H0v1.19H3062.04v-1.19Zm0-58.7H0v1.19H3062.04v-1.19Zm0-58.7H0v1.19H3062.04v-1.19Zm0-58.7H0v1.19H3062.04v-1.19Zm0-58.7H0v1.19H3062.04v-1.19Zm0-58.7H0v1.19H3062.04v-1.19Zm0-58.7H0v1.19H3062.04v-1.19Zm0-58.7H0v1.19H3062.04v-1.19Zm0-58.7H0v1.19H3062.04v-1.19Zm0-58.7H0v1.19H3062.04v-1.19Zm0-58.7H0v1.19H3062.04v-1.19Zm0-58.7H0v1.19H3062.04v-1.19Zm0-58.7H0v1.19H3062.04v-1.19Zm0-58.7H0v1.19H3062.04v-1.19Zm0-58.7H0v1.19H3062.04v-1.19Zm0-58.7H0v1.19H3062.04v-1.19Zm0-58.7H0v1.19H3062.04v-1.19Zm0-58.7H0v1.19H3062.04v-1.19Zm0-58.7H0v1.19H3062.04v-1.19Zm0-58.7H0v1.19H3062.04v-1.19Zm0-58.7H0v1.19H3062.04v-1.19Zm0-58.7H0v1.19H3062.04v-1.19Zm0-58.7H0v1.19H3062.04v-1.19Zm0-58.7H0v1.19H3062.04v-1.19Zm0-58.7H0v1.19H3062.04v-1.19Zm0-58.7H0v1.19H3062.04v-1.19Zm0-58.7H0v1.19H3062.04v-1.19Zm0-58.7H0v1.19H3062.04v-1.19Zm0-58.7H0v1.19H3062.04v-1.19Zm0-58.7H0v1.19H3062.04v-1.19Zm0-58.7H0v1.19H3062.04v-1.19Zm0-58.7H0v1.19H3062.04v-1.19Zm0-58.7H0v1.19H3062.04v-1.19Zm0-58.7H0v1.19H3062.04v-1.19Zm0-58.7H0v1.19H3062.04v-1.19Zm0-58.7H0v1.19H3062.04v-1.19Zm0-58.7H0v1.19H3062.04v-1.19Zm0-58.7H0v1.19H3062.04v-1.19Zm0-58.7H0v1.19H3062.04v-1.19Zm0-58.7H0v1.19H3062.04v-1.19Zm0-58.7H0v1.19H3062.04v-1.19Zm0-58.7H0v1.19H3062.04v-1.19Zm0-58.7H0v1.19H3062.04v-1.19Zm0-58.7H0v1.19H3062.04v-1.19Zm0-58.7H0v1.19H3062.04v-1.19Zm0-58.7H0v1.19H3062.04v-1.19Zm0-58.7H0v1.19H3062.04v-1.19Zm0-58.7H0v1.19H3062.04v-1.19Zm0-58.7H0v1.19H3062.04v-1.19Zm0-58.7H0v1.19H3062.04v-1.19Zm0-58.7H0v1.19H3062.04v-1.19ZM5997.68,0h-1.19V3062.04h1.19V0ZM5938.98,0h-1.19V3062.04h1.19V0ZM5880.28,0h-1.19V3062.04h1.19V0ZM5821.58,0h-1.19V3062.04h1.19V0ZM5762.88,0h-1.19V3062.04h1.19V0ZM5704.18,0h-1.19V3062.04h1.19V0ZM5645.48,0h-1.19V3062.04h1.19V0ZM5586.78,0h-1.19V3062.04h1.19V0ZM5528.08,0h-1.19V3062.04h1.19V0ZM5469.38,0h-1.19V3062.04h1.19V0ZM5410.68,0h-1.19V3062.04h1.19V0ZM5351.98,0h-1.19V3062.04h1.19V0ZM5293.27,0h-1.19V3062.04h1.19V0ZM5234.57,0h-1.19V3062.04h1.19V0ZM5175.87,0h-1.19V3062.04h1.19V0ZM5117.17,0h-1.19V3062.04h1.19V0ZM5058.47,0h-1.19V3062.04h1.19V0ZM4999.77,0h-1.19V3062.04h1.19V0ZM4941.07,0h-1.19V3062.04h1.19V0ZM4882.37,0h-1.19V3062.04h1.19V0ZM4823.67,0h-1.19V3062.04h1.19V0ZM4764.97,0h-1.19V3062.04h1.19V0ZM4706.27,0h-1.19V3062.04h1.19V0ZM4647.57,0h-1.19V3062.04h1.19V0ZM4588.87,0h-1.19V3062.04h1.19V0ZM4530.17,0h-1.19V3062.04h1.19V0ZM4471.47,0h-1.19V3062.04h1.19V0ZM4412.77,0h-1.19V3062.04h1.19V0ZM4354.07,0h-1.19V3062.04h1.19V0ZM4295.37,0h-1.19V3062.04h1.19V0ZM4236.67,0h-1.19V3062.04h1.19V0ZM4177.96,0h-1.19V3062.04h1.19V0ZM4119.26,0h-1.19V3062.04h1.19V0ZM4060.56,0h-1.19V3062.04h1.19V0ZM4001.86,0h-1.19V3062.04h1.19V0ZM3943.16,0h-1.19V3062.04h1.19V0ZM3884.46,0h-1.19V3062.04h1.19V0ZM3825.76,0h-1.19V3062.04h1.19V0ZM3767.06,0h-1.19V3062.04h1.19V0ZM3708.36,0h-1.19V3062.04h1.19V0ZM3649.66,0h-1.19V3062.04h1.19V0ZM3590.96,0h-1.19V3062.04h1.19V0ZM3532.26,0h-1.19V3062.04h1.19V0ZM3473.56,0h-1.19V3062.04h1.19V0ZM3414.86,0h-1.19V3062.04h1.19V0ZM3356.16,0h-1.19V3062.04h1.19V0ZM3297.46,0h-1.19V3062.04h1.19V0ZM3238.76,0h-1.19V3062.04h1.19V0ZM3180.06,0h-1.19V3062.04h1.19V0ZM3121.36,0h-1.19V3062.04h1.19V0ZM3062.66,0h-1.19V3062.04h1.19V0Zm2997.94,2997.94H2998.55v1.19h3062.04v-1.19Zm0-58.7H2998.55v1.19h3062.04v-1.19Zm0-58.7H2998.55v1.19h3062.04v-1.19Zm0-58.7H2998.55v1.19h3062.04v-1.19Zm0-58.7H2998.55v1.19h3062.04v-1.19Zm0-58.7H2998.55v1.19h3062.04v-1.19Zm0-58.7H2998.55v1.19h3062.04v-1.19Zm0-58.7H2998.55v1.19h3062.04v-1.19Zm0-58.7H2998.55v1.19h3062.04v-1.19Zm0-58.7H2998.55v1.19h3062.04v-1.19Zm0-58.7H2998.55v1.19h3062.04v-1.19Zm0-58.7H2998.55v1.19h3062.04v-1.19Zm0-58.7H2998.55v1.19h3062.04v-1.19Zm0-58.7H2998.55v1.19h3062.04v-1.19Zm0-58.7H2998.55v1.19h3062.04v-1.19Zm0-58.7H2998.55v1.19h3062.04v-1.19Zm0-58.7H2998.55v1.19h3062.04v-1.19Zm0-58.7H2998.55v1.19h3062.04v-1.19Zm0-58.7H2998.55v1.19h3062.04v-1.19Zm0-58.7H2998.55v1.19h3062.04v-1.19Zm0-58.7H2998.55v1.19h3062.04v-1.19Zm0-58.7H2998.55v1.19h3062.04v-1.19Zm0-58.7H2998.55v1.19h3062.04v-1.19Zm0-58.7H2998.55v1.19h3062.04v-1.19Zm0-58.7H2998.55v1.19h3062.04v-1.19Zm0-58.7H2998.55v1.19h3062.04v-1.19Zm0-58.7H2998.55v1.19h3062.04v-1.19Zm0-58.7H2998.55v1.19h3062.04v-1.19Zm0-58.7H2998.55v1.19h3062.04v-1.19Zm0-58.7H2998.55v1.19h3062.04v-1.19Zm0-58.7H2998.55v1.19h3062.04v-1.19Zm0-58.7H2998.55v1.19h3062.04v-1.19Zm0-58.7H2998.55v1.19h3062.04v-1.19Zm0-58.7H2998.55v1.19h3062.04v-1.19Zm0-58.7H2998.55v1.19h3062.04v-1.19Zm0-58.7H2998.55v1.19h3062.04v-1.19Zm0-58.7H2998.55v1.19h3062.04v-1.19Zm0-58.7H2998.55v1.19h3062.04v-1.19Zm0-58.7H2998.55v1.19h3062.04v-1.19Zm0-58.7H2998.55v1.19h3062.04v-1.19Zm0-58.7H2998.55v1.19h3062.04v-1.19Zm0-58.7H2998.55v1.19h3062.04v-1.19Zm0-58.7H2998.55v1.19h3062.04v-1.19Zm0-58.7H2998.55v1.19h3062.04v-1.19Zm0-58.7H2998.55v1.19h3062.04v-1.19Zm0-58.7H2998.55v1.19h3062.04v-1.19Zm0-58.7H2998.55v1.19h3062.04v-1.19Zm0-58.7H2998.55v1.19h3062.04v-1.19Zm0-58.7H2998.55v1.19h3062.04v-1.19Zm0-58.7H2998.55v1.19h3062.04v-1.19Zm0-58.7H2998.55v1.19h3062.04v-1.19ZM2999.13,2999.09h-1.19v3062.04h1.19V2999.09Zm-58.7,0h-1.19v3062.04h1.19V2999.09Zm-58.7,0h-1.19v3062.04h1.19V2999.09Zm-58.7,0h-1.19v3062.04h1.19V2999.09Zm-58.7,0h-1.19v3062.04h1.19V2999.09Zm-58.7,0h-1.19v3062.04h1.19V2999.09Zm-58.7,0h-1.19v3062.04h1.19V2999.09Zm-58.7,0h-1.19v3062.04h1.19V2999.09Zm-58.7,0h-1.19v3062.04h1.19V2999.09Zm-58.7,0h-1.19v3062.04h1.19V2999.09Zm-58.7,0h-1.19v3062.04h1.19V2999.09Zm-58.7,0h-1.19v3062.04h1.19V2999.09Zm-58.7,0h-1.19v3062.04h1.19V2999.09Zm-58.7,0h-1.19v3062.04h1.19V2999.09Zm-58.7,0h-1.19v3062.04h1.19V2999.09Zm-58.7,0h-1.19v3062.04h1.19V2999.09Zm-58.7,0h-1.19v3062.04h1.19V2999.09Zm-58.7,0h-1.19v3062.04h1.19V2999.09Zm-58.7,0h-1.19v3062.04h1.19V2999.09Zm-58.7,0h-1.19v3062.04h1.19V2999.09Zm-58.7,0h-1.19v3062.04h1.19V2999.09Zm-58.7,0h-1.19v3062.04h1.19V2999.09Zm-58.7,0h-1.19v3062.04h1.19V2999.09Zm-58.7,0h-1.19v3062.04h1.19V2999.09Zm-58.7,0h-1.19v3062.04h1.19V2999.09Zm-58.7,0h-1.19v3062.04h1.19V2999.09Zm-58.7,0h-1.19v3062.04h1.19V2999.09Zm-58.7,0h-1.19v3062.04h1.19V2999.09Zm-58.7,0h-1.19v3062.04h1.19V2999.09Zm-58.7,0h-1.19v3062.04h1.19V2999.09Zm-58.7,0h-1.19v3062.04h1.19V2999.09Zm-58.7,0h-1.19v3062.04h1.19V2999.09Zm-58.7,0h-1.19v3062.04h1.19V2999.09Zm-58.7,0h-1.19v3062.04h1.19V2999.09Zm-58.7,0h-1.19v3062.04h1.19V2999.09Zm-58.7,0h-1.19v3062.04h1.19V2999.09Zm-58.7,0h-1.19v3062.04h1.19V2999.09Zm-58.7,0h-1.19v3062.04h1.19V2999.09Zm-58.7,0h-1.19v3062.04h1.19V2999.09Zm-58.7,0h-1.19v3062.04h1.19V2999.09Zm-58.7,0h-1.19v3062.04h1.19V2999.09Zm-58.7,0h-1.19v3062.04h1.19V2999.09Zm-58.7,0h-1.19v3062.04h1.19V2999.09Zm-58.7,0h-1.19v3062.04h1.19V2999.09Zm-58.7,0h-1.19v3062.04h1.19V2999.09Zm-58.7,0h-1.19v3062.04h1.19V2999.09Zm-58.7,0h-1.19v3062.04h1.19V2999.09Zm-58.7,0h-1.19v3062.04h1.19V2999.09Zm-58.7,0h-1.19v3062.04h1.19V2999.09Zm-58.7,0h-1.19v3062.04h1.19V2999.09Zm-58.7,0h-1.19v3062.04h1.19V2999.09Zm2997.94,2997.94H0v1.19H3062.04v-1.19Zm0-58.7H0v1.19H3062.04v-1.19Zm0-58.7H0v1.19H3062.04v-1.19Zm0-58.7H0v1.19H3062.04v-1.19Zm0-58.7H0v1.19H3062.04v-1.19Zm0-58.7H0v1.19H3062.04v-1.19Zm0-58.7H0v1.19H3062.04v-1.19Zm0-58.7H0v1.19H3062.04v-1.19Zm0-58.7H0v1.19H3062.04v-1.19Zm0-58.7H0v1.19H3062.04v-1.19Zm0-58.7H0v1.19H3062.04v-1.19Zm0-58.7H0v1.19H3062.04v-1.19Zm0-58.7H0v1.19H3062.04v-1.19Zm0-58.7H0v1.19H3062.04v-1.19Zm0-58.7H0v1.19H3062.04v-1.19Zm0-58.7H0v1.19H3062.04v-1.19Zm0-58.7H0v1.19H3062.04v-1.19Zm0-58.7H0v1.19H3062.04v-1.19Zm0-58.7H0v1.19H3062.04v-1.19Zm0-58.7H0v1.19H3062.04v-1.19Zm0-58.7H0v1.19H3062.04v-1.19Zm0-58.7H0v1.19H3062.04v-1.19Zm0-58.7H0v1.19H3062.04v-1.19Zm0-58.7H0v1.19H3062.04v-1.19Zm0-58.7H0v1.19H3062.04v-1.19Zm0-58.7H0v1.19H3062.04v-1.19Zm0-58.7H0v1.19H3062.04v-1.19Zm0-58.7H0v1.19H3062.04v-1.19Zm0-58.7H0v1.19H3062.04v-1.19Zm0-58.7H0v1.19H3062.04v-1.19Zm0-58.7H0v1.19H3062.04v-1.19Zm0-58.7H0v1.19H3062.04v-1.19Zm0-58.7H0v1.19H3062.04v-1.19Zm0-58.7H0v1.19H3062.04v-1.19Zm0-58.7H0v1.19H3062.04v-1.19Zm0-58.7H0v1.19H3062.04v-1.19Zm0-58.7H0v1.19H3062.04v-1.19Zm0-58.7H0v1.19H3062.04v-1.19Zm0-58.7H0v1.19H3062.04v-1.19Zm0-58.7H0v1.19H3062.04v-1.19Zm0-58.7H0v1.19H3062.04v-1.19Zm0-58.7H0v1.19H3062.04v-1.19Zm0-58.7H0v1.19H3062.04v-1.19Zm0-58.7H0v1.19H3062.04v-1.19Zm0-58.7H0v1.19H3062.04v-1.19Zm0-58.7H0v1.19H3062.04v-1.19Zm0-58.7H0v1.19H3062.04v-1.19Zm0-58.7H0v1.19H3062.04v-1.19Zm0-58.7H0v1.19H3062.04v-1.19Zm0-58.7H0v1.19H3062.04v-1.19Zm0-58.7H0v1.19H3062.04v-1.19Zm2935.64-62.91h-1.19v3062.04h1.19V2999.09Zm-58.7,0h-1.19v3062.04h1.19V2999.09Zm-58.7,0h-1.19v3062.04h1.19V2999.09Zm-58.7,0h-1.19v3062.04h1.19V2999.09Zm-58.7,0h-1.19v3062.04h1.19V2999.09Zm-58.7,0h-1.19v3062.04h1.19V2999.09Zm-58.7,0h-1.19v3062.04h1.19V2999.09Zm-58.7,0h-1.19v3062.04h1.19V2999.09Zm-58.7,0h-1.19v3062.04h1.19V2999.09Zm-58.7,0h-1.19v3062.04h1.19V2999.09Zm-58.7,0h-1.19v3062.04h1.19V2999.09Zm-58.7,0h-1.19v3062.04h1.19V2999.09Zm-58.7,0h-1.19v3062.04h1.19V2999.09Zm-58.7,0h-1.19v3062.04h1.19V2999.09Zm-58.7,0h-1.19v3062.04h1.19V2999.09Zm-58.7,0h-1.19v3062.04h1.19V2999.09Zm-58.7,0h-1.19v3062.04h1.19V2999.09Zm-58.7,0h-1.19v3062.04h1.19V2999.09Zm-58.7,0h-1.19v3062.04h1.19V2999.09Zm-58.7,0h-1.19v3062.04h1.19V2999.09Zm-58.7,0h-1.19v3062.04h1.19V2999.09Zm-58.7,0h-1.19v3062.04h1.19V2999.09Zm-58.7,0h-1.19v3062.04h1.19V2999.09Zm-58.7,0h-1.19v3062.04h1.19V2999.09Zm-58.7,0h-1.19v3062.04h1.19V2999.09Zm-58.7,0h-1.19v3062.04h1.19V2999.09Zm-58.7,0h-1.19v3062.04h1.19V2999.09Zm-58.7,0h-1.19v3062.04h1.19V2999.09Zm-58.7,0h-1.19v3062.04h1.19V2999.09Zm-58.7,0h-1.19v3062.04h1.19V2999.09Zm-58.7,0h-1.19v3062.04h1.19V2999.09Zm-58.7,0h-1.19v3062.04h1.19V2999.09Zm-58.7,0h-1.19v3062.04h1.19V2999.09Zm-58.7,0h-1.19v3062.04h1.19V2999.09Zm-58.7,0h-1.19v3062.04h1.19V2999.09Zm-58.7,0h-1.19v3062.04h1.19V2999.09Zm-58.7,0h-1.19v3062.04h1.19V2999.09Zm-58.7,0h-1.19v3062.04h1.19V2999.09Zm-58.7,0h-1.19v3062.04h1.19V2999.09Zm-58.7,0h-1.19v3062.04h1.19V2999.09Zm-58.7,0h-1.19v3062.04h1.19V2999.09Zm-58.7,0h-1.19v3062.04h1.19V2999.09Zm-58.7,0h-1.19v3062.04h1.19V2999.09Zm-58.7,0h-1.19v3062.04h1.19V2999.09Zm-58.7,0h-1.19v3062.04h1.19V2999.09Zm-58.7,0h-1.19v3062.04h1.19V2999.09Zm-58.7,0h-1.19v3062.04h1.19V2999.09Zm-58.7,0h-1.19v3062.04h1.19V2999.09Zm-58.7,0h-1.19v3062.04h1.19V2999.09Zm-58.7,0h-1.19v3062.04h1.19V2999.09Zm-58.7,0h-1.19v3062.04h1.19V2999.09Zm2997.94,2997.94H2998.55v1.19h3062.04v-1.19Zm0-58.7H2998.55v1.19h3062.04v-1.19Zm0-58.7H2998.55v1.19h3062.04v-1.19Zm0-58.7H2998.55v1.19h3062.04v-1.19Zm0-58.7H2998.55v1.19h3062.04v-1.19Zm0-58.7H2998.55v1.19h3062.04v-1.19Zm0-58.7H2998.55v1.19h3062.04v-1.19Zm0-58.7H2998.55v1.19h3062.04v-1.19Zm0-58.7H2998.55v1.19h3062.04v-1.19Zm0-58.7H2998.55v1.19h3062.04v-1.19Zm0-58.7H2998.55v1.19h3062.04v-1.19Zm0-58.7H2998.55v1.19h3062.04v-1.19Zm0-58.7H2998.55v1.19h3062.04v-1.19Zm0-58.7H2998.55v1.19h3062.04v-1.19Zm0-58.7H2998.55v1.19h3062.04v-1.19Zm0-58.7H2998.55v1.19h3062.04v-1.19Zm0-58.7H2998.55v1.19h3062.04v-1.19Zm0-58.7H2998.55v1.19h3062.04v-1.19Zm0-58.7H2998.55v1.19h3062.04v-1.19Zm0-58.7H2998.55v1.19h3062.04v-1.19Zm0-58.7H2998.55v1.19h3062.04v-1.19Zm0-58.7H2998.55v1.19h3062.04v-1.19Zm0-58.7H2998.55v1.19h3062.04v-1.19Zm0-58.7H2998.55v1.19h3062.04v-1.19Zm0-58.7H2998.55v1.19h3062.04v-1.19Zm0-58.7H2998.55v1.19h3062.04v-1.19Zm0-58.7H2998.55v1.19h3062.04v-1.19Zm0-58.7H2998.55v1.19h3062.04v-1.19Zm0-58.7H2998.55v1.19h3062.04v-1.19Zm0-58.7H2998.55v1.19h3062.04v-1.19Zm0-58.7H2998.55v1.19h3062.04v-1.19Zm0-58.7H2998.55v1.19h3062.04v-1.19Zm0-58.7H2998.55v1.19h3062.04v-1.19Zm0-58.7H2998.55v1.19h3062.04v-1.19Zm0-58.7H2998.55v1.19h3062.04v-1.19Zm0-58.7H2998.55v1.19h3062.04v-1.19Zm0-58.7H2998.55v1.19h3062.04v-1.19Zm0-58.7H2998.55v1.19h3062.04v-1.19Zm0-58.7H2998.55v1.19h3062.04v-1.19Zm0-58.7H2998.55v1.19h3062.04v-1.19Zm0-58.7H2998.55v1.19h3062.04v-1.19Zm0-58.7H2998.55v1.19h3062.04v-1.19Zm0-58.7H2998.55v1.19h3062.04v-1.19Zm0-58.7H2998.55v1.19h3062.04v-1.19Zm0-58.7H2998.55v1.19h3062.04v-1.19Zm0-58.7H2998.55v1.19h3062.04v-1.19Zm0-58.7H2998.55v1.19h3062.04v-1.19Zm0-58.7H2998.55v1.19h3062.04v-1.19Zm0-58.7H2998.55v1.19h3062.04v-1.19Zm0-58.7H2998.55v1.19h3062.04v-1.19Zm0-58.7H2998.55v1.19h3062.04v-1.19Z"/></svg>