<svg width="300" height="300" viewBox="0 0 300 300" fill="none" xmlns="http://www.w3.org/2000/svg">
<mask id="path-1-inside-1_41_13" fill="white">
<path fill-rule="evenodd" clip-rule="evenodd" d="M150 0L123.551 17.3918V104.189L48.3826 60.7902L20.0962 75L21.9333 106.602L97.1016 150L21.9334 193.398L20.0962 225L48.3826 239.21L123.551 195.811L123.551 282.608L150 300L176.449 282.608L176.449 195.811L251.617 239.21L279.904 225L278.067 193.398L202.898 150L278.067 106.602L279.904 75L251.617 60.7902L176.449 104.189L176.449 17.3918L150 0Z"/>
</mask>
<path d="M123.551 17.3918L121.353 14.0496L119.551 15.2348V17.3918H123.551ZM150 0L152.198 -3.34219L150 -4.78728L147.802 -3.34219L150 0ZM123.551 104.189L121.551 107.653L127.551 111.117V104.189H123.551ZM48.3826 60.7902L50.3826 57.3261L48.5145 56.2476L46.587 57.2159L48.3826 60.7902ZM20.0962 75L18.3006 71.4256L15.9503 72.6063L16.1029 75.2321L20.0962 75ZM21.9333 106.602L17.9401 106.834L18.0653 108.987L19.9333 110.066L21.9333 106.602ZM97.1016 150L99.1016 153.464L105.102 150L99.1016 146.536L97.1016 150ZM21.9334 193.398L19.9334 189.934L18.0653 191.013L17.9401 193.166L21.9334 193.398ZM20.0962 225L16.1029 224.768L15.9503 227.394L18.3006 228.574L20.0962 225ZM48.3826 239.21L46.587 242.784L48.5145 243.752L50.3826 242.674L48.3826 239.21ZM123.551 195.811L127.551 195.811L127.551 188.883L121.551 192.347L123.551 195.811ZM123.551 282.608L119.551 282.608L119.551 284.765L121.353 285.95L123.551 282.608ZM150 300L147.802 303.342L150 304.787L152.198 303.342L150 300ZM176.449 282.608L178.647 285.95L180.449 284.765L180.449 282.608L176.449 282.608ZM176.449 195.811L178.449 192.347L172.449 188.883L172.449 195.811L176.449 195.811ZM251.617 239.21L249.617 242.674L251.486 243.752L253.413 242.784L251.617 239.21ZM279.904 225L281.699 228.574L284.05 227.394L283.897 224.768L279.904 225ZM278.067 193.398L282.06 193.166L281.935 191.013L280.067 189.934L278.067 193.398ZM202.898 150L200.898 146.536L194.898 150L200.898 153.464L202.898 150ZM278.067 106.602L280.067 110.066L281.935 108.987L282.06 106.834L278.067 106.602ZM279.904 75L283.897 75.2322L284.05 72.6064L281.699 71.4257L279.904 75ZM251.617 60.7902L253.413 57.2159L251.486 56.2476L249.617 57.3261L251.617 60.7902ZM176.449 104.189L172.449 104.189L172.449 111.117L178.449 107.653L176.449 104.189ZM176.449 17.3918L180.449 17.3918L180.449 15.2348L178.647 14.0496L176.449 17.3918ZM125.748 20.734L152.198 3.34219L147.802 -3.34219L121.353 14.0496L125.748 20.734ZM127.551 104.189V17.3918H119.551V104.189H127.551ZM125.551 100.724L50.3826 57.3261L46.3826 64.2543L121.551 107.653L125.551 100.724ZM46.587 57.2159L18.3006 71.4256L21.8918 78.5743L50.1781 64.3645L46.587 57.2159ZM16.1029 75.2321L17.9401 106.834L25.9266 106.369L24.0894 74.7678L16.1029 75.2321ZM19.9333 110.066L95.1016 153.464L99.1016 146.536L23.9333 103.137L19.9333 110.066ZM23.9334 196.863L99.1016 153.464L95.1016 146.536L19.9334 189.934L23.9334 196.863ZM24.0895 225.232L25.9266 193.631L17.9401 193.166L16.1029 224.768L24.0895 225.232ZM50.1781 235.635L21.8918 221.426L18.3006 228.574L46.587 242.784L50.1781 235.635ZM121.551 192.347L46.3826 235.746L50.3826 242.674L125.551 199.276L121.551 192.347ZM127.551 282.608L127.551 195.811L119.551 195.811L119.551 282.608L127.551 282.608ZM152.198 296.658L125.748 279.266L121.353 285.95L147.802 303.342L152.198 296.658ZM174.252 279.266L147.802 296.658L152.198 303.342L178.647 285.95L174.252 279.266ZM172.449 195.811L172.449 282.608L180.449 282.608L180.449 195.811L172.449 195.811ZM174.449 199.275L249.617 242.674L253.617 235.746L178.449 192.347L174.449 199.275ZM253.413 242.784L281.699 228.574L278.108 221.426L249.822 235.635L253.413 242.784ZM283.897 224.768L282.06 193.166L274.073 193.631L275.911 225.232L283.897 224.768ZM280.067 189.934L204.898 146.536L200.898 153.464L276.067 196.862L280.067 189.934ZM276.067 103.138L200.898 146.536L204.898 153.464L280.067 110.066L276.067 103.138ZM275.911 74.7679L274.073 106.369L282.06 106.834L283.897 75.2322L275.911 74.7679ZM249.822 64.3646L278.108 78.5744L281.699 71.4257L253.413 57.2159L249.822 64.3646ZM178.449 107.653L253.617 64.2543L249.617 57.3261L174.449 100.725L178.449 107.653ZM172.449 17.3918L172.449 104.189L180.449 104.189L180.449 17.3918L172.449 17.3918ZM147.802 3.34219L174.252 20.734L178.647 14.0496L152.198 -3.34219L147.802 3.34219Z" fill="#0D0C22" mask="url(#path-1-inside-1_41_13)"/>
</svg>
