<svg width="101" height="118" viewBox="0 0 101 118" fill="none" xmlns="http://www.w3.org/2000/svg">
<g clip-path="url(#clip0_32_80)">
<path d="M98.315 46.4625C97.3317 43.4633 94.3325 41.595 91.2842 42.1358C87.8917 42.7258 85.3842 45.6267 85.2367 45.7742L78.5992 53.8375C78.4025 54.0833 77.96 54.6242 77.37 55.4108C70.4867 47.9867 67.4875 38.645 65.275 30.385C63.6525 24.485 60.4567 21.4367 55.7859 21.2892C53.2292 21.1908 51.115 22.3708 49.8859 24.5342C49.8367 24.5833 49.8367 24.6325 49.7875 24.7308C48.3125 23.6492 46.395 23.1575 44.4284 23.4525C41.085 23.9933 38.6267 26.5992 38.3809 29.9917C38.3317 30.5817 38.3317 31.2208 38.3317 31.8108C36.07 31.3192 33.9559 32.0567 33.71 32.155C33.6609 32.155 33.6117 32.2042 33.5625 32.2042C30.17 33.8758 29.4325 37.6125 29.3342 40.12C28.8425 40.12 28.3509 40.2183 27.9575 40.3658C25.8925 41.005 23.2867 42.8733 22.7459 47.8883C22.4017 50.9858 22.9917 54.2308 24.5159 57.1317L39.4134 85.9925V86.0417C46.395 98.6775 56.1792 101.578 63.1117 101.726C63.3575 101.726 63.6034 101.726 63.8492 101.726C70.6834 101.726 75.9442 99.3167 76.5342 99.0217C90.2517 93.1708 91.6775 79.7483 91.6775 74.2417C91.6775 73.1108 91.53 71.98 91.3825 70.9967C91.0875 68.9808 91.6775 65.6867 93.1034 61.7042C93.6442 60.2292 95.2175 57.8692 96.25 56.345L96.6925 55.7058C99.2984 52.0183 99.0034 48.6258 98.315 46.4625ZM41.8225 30.3358C41.97 28.1725 43.5434 27.14 44.9692 26.9433C46.3459 26.7467 48.2142 27.2383 49.05 29.2542C49.1975 29.6475 49.345 30.09 49.4925 30.5325C49.5417 30.7292 54.7534 47.6917 59.375 54.6733C57.2117 55.755 55.245 57.0825 53.5242 58.4592C49.5417 52.6575 43.8384 38.3008 43.4942 37.17C43.15 35.9408 42.6584 34.9083 41.97 34.0725C41.8717 32.7942 41.7242 31.5158 41.8225 30.3358ZM93.8409 53.9358L93.3984 54.575C92.1692 56.345 90.5467 58.8033 89.8584 60.6717C88.1867 65.2933 87.5475 68.9808 87.9409 71.685C88.0884 72.57 88.1867 73.5042 88.2359 74.4383C88.2359 79.2567 87.0067 91.0075 75.1575 96.0225C75.1084 96.0225 75.1084 96.0225 75.0592 96.0717C74.2234 96.465 54.2617 105.856 42.4125 84.5175L27.515 55.6567C26.335 53.3458 25.8434 50.7892 26.0892 48.38C26.5317 44.4958 28.3509 43.955 28.9409 43.7583C29.3834 43.6108 30.17 43.66 30.5142 43.9058C31.3009 44.545 32.235 47.2 32.6775 48.5275C32.825 49.0192 33.0217 49.4617 33.12 49.8058C38.135 62.7858 41.675 66.8667 41.8225 67.0142C42.4617 67.7025 43.5434 67.8008 44.2317 67.1617C44.9692 66.5225 45.0184 65.4408 44.3792 64.7525C44.33 64.7033 41.0359 60.8192 36.365 48.5275C36.2175 48.1833 36.1192 47.79 35.9225 47.3475C34.9884 44.6925 34.1525 42.3817 32.7267 41.2017C32.7267 38.055 33.4642 36.1867 34.9884 35.3508C35.3325 35.2525 37.0534 34.7608 38.3809 35.4492C39.2167 35.8917 39.7575 36.6783 40.1017 37.9567C40.3475 38.94 46.4442 54.4767 50.82 60.6225C49.7384 61.655 48.8042 62.6383 48.1159 63.4742C47.4767 64.2117 47.575 65.2933 48.2634 65.8833C48.6075 66.1783 49.0009 66.3258 49.3942 66.3258C49.8859 66.3258 50.3284 66.1292 50.6725 65.7358C53.3767 62.6383 58.9817 57.23 65.7667 55.9517C66.7009 55.8042 67.34 54.87 67.1434 53.9358C66.9467 53.0017 66.0617 52.3625 65.1275 52.5592C64.2425 52.7067 63.3575 52.9525 62.4725 53.2475C58.7359 48.1833 53.77 33.1875 52.6392 29.4508C52.4917 28.9592 52.3442 28.5167 52.1475 28.0742V28.025C52.1967 27.4842 52.59 24.7308 55.3925 24.7308C55.4417 24.7308 55.4909 24.7308 55.54 24.7308C56.7692 24.78 60.0142 24.8783 61.7842 31.3192C64.1934 40.12 67.4384 50.1992 75.1575 58.2625C72.5025 62.0483 69.3067 67.3583 69.3067 70.7508C69.3067 71.685 70.0934 72.4717 71.0275 72.4717C71.9617 72.4717 72.7484 71.685 72.7484 70.7508C72.7484 67.6042 77.9109 60.0325 81.1559 56.0008L87.8917 48.0358C87.8917 48.0358 89.7109 45.9217 91.9234 45.5775C93.3 45.3317 94.6275 46.1675 95.07 47.5442C95.7092 49.6092 95.3159 51.7725 93.8409 53.9358Z" fill="#0D0C22"/>
<path d="M14.6825 52.3625C15.6167 52.3625 16.3542 51.625 16.4034 50.74C16.4525 49.8058 15.715 48.97 14.7809 48.9208L3.96419 48.4292C3.03002 48.38 2.19419 49.1175 2.14502 50.0517C2.09586 50.9858 2.83336 51.8217 3.76752 51.8708L14.5842 52.3625C14.6334 52.3625 14.6334 52.3625 14.6825 52.3625Z" fill="#0D0C22"/>
<path d="M20.7792 65.9817L10.405 71.8817C9.5692 72.3733 9.2742 73.4058 9.76586 74.2417C10.0609 74.7825 10.6509 75.1267 11.2409 75.1267C11.5359 75.1267 11.8309 75.0775 12.0767 74.8808L22.4509 68.9808C23.2867 68.4892 23.5817 67.4567 23.09 66.6208C22.6475 65.785 21.615 65.49 20.7792 65.9817Z" fill="#0D0C22"/>
<path d="M9.71672 29.4508L17.5342 35.105C17.8292 35.3017 18.1734 35.4492 18.5176 35.4492C19.0584 35.4492 19.5992 35.2033 19.8942 34.7117C20.4351 33.925 20.2876 32.8433 19.5009 32.3025L11.7325 26.6975C10.9459 26.1567 9.86422 26.3042 9.32338 27.0908C8.78255 27.8283 8.97922 28.91 9.71672 29.4508Z" fill="#0D0C22"/>
</g>
<defs>
<clipPath id="clip0_32_80">
<rect width="101" height="118" fill="white"/>
</clipPath>
</defs>
</svg>
