<svg width="24" height="24" viewBox="0 0 24 24" fill="none" xmlns="http://www.w3.org/2000/svg">
<path d="M5.78022 3.53131C5.77977 4.51647 5.18209 5.403 4.269 5.77285C3.3559 6.14271 2.30975 5.92204 1.62382 5.21491C0.937893 4.50776 0.749187 3.45536 1.14667 2.55396C1.54417 1.65255 2.44847 1.08214 3.43319 1.11169C4.74108 1.15095 5.78081 2.22283 5.78022 3.53131ZM5.85281 7.74145H1.01357V22.8882H5.85281V7.74145ZM13.4988 7.74145H8.68376V22.8882H13.4504V14.9398C13.4504 10.5119 19.2212 10.1005 19.2212 14.9398V22.8882H24V13.2944C24 5.82995 15.4587 6.10821 13.4504 9.7739L13.4988 7.74145Z" fill="black"/>
</svg>
